<svg id="Objects" xmlns="http://www.w3.org/2000/svg" xmlns:xlink="http://www.w3.org/1999/xlink" viewBox="0 0 983.44 511.25"><defs><style>.cls-1{fill:url(#linear-gradient);}</style><linearGradient id="linear-gradient" x1="996.07" y1="259.74" x2="11.14" y2="312.57" gradientUnits="userSpaceOnUse"><stop offset="0" stop-color="#ff90f4"/><stop offset="0.4" stop-color="#83e6de"/><stop offset="1" stop-color="#64dc3a"/></linearGradient></defs><title>fiteat_line</title><path class="cls-1" d="M139.53,534.41C92.93,526.05,46,502.77,28.94,455.72,16.08,420.26,22.43,379.13,41.38,347c8.86-15,20.55-28.45,35.27-37.93,34.75-22.38,76.56-24.93,115.2-11.56,18.94,6.55,36.28,16.82,53.23,27.36,16.3,10.14,32.35,21.17,50.18,28.52,17.36,7.15,35.91,9.09,54,3.42,17.72-5.57,33-16.81,46.77-29,14.31-12.66,27.63-26.63,43.55-37.33,16.38-11,35.29-17.8,54.6-21.52,40.75-7.84,83.65-4.64,123,8.2,36.87,12,71.45,29.93,108,42.81,18,6.35,36.55,11.44,55.5,13.91a310.77,310.77,0,0,0,58,1.65c53-3.16,106.31-31.16,135.11-76.69,21.42-33.87,27.11-75.18,17.72-113.94-9.06-37.44-32.12-71.5-64.51-92.57C891.46,29.23,847.6,25.5,807.53,38.11a199.1,199.1,0,0,0-34.12,14.63c-5,2.67,2.91,8.5,7,6.3,38.37-20.54,84.16-28.35,124.92-9.93,34.38,15.54,60,46.53,72.38,81.79,13,37,11.2,78.48-6.91,113.46-23.52,45.44-73.72,77-124,82.56a266.17,266.17,0,0,1-114.39-12.34c-36.71-12.4-71.28-30.27-107.93-42.84C586.35,258.65,545.4,254,505.3,259.06c-19.23,2.44-38.33,7.14-55.86,15.56-17.08,8.2-31.31,20.13-45.14,32.89s-27.71,26.15-44.47,35.34c-17.57,9.63-36.56,12.32-55.71,5.88-18.45-6.2-34.85-17.75-51.22-28s-33.06-20.25-51.06-27.48c-36.09-14.49-77.21-16.73-113.16-.72-19.81,8.82-36.54,21.8-49.21,39.4C17.85,362,7.73,401.49,14.58,438.08,23,483,56.64,514.94,98.26,530.92a227.92,227.92,0,0,0,41.54,11.19c6.46,1.16,5.28-6.71-.26-7.7Z" transform="translate(-12.46 -30.98)"/></svg>